<?xml version="1.0" encoding="UTF-8"?>
<svg xmlns="http://www.w3.org/2000/svg" viewBox="-11.872 -9.062 24.512 18.490" width="500" height="500">
<defs>
<style>
.node-0{fill:#ff0000;stroke:#000000;stroke-width:0.050px;opacity:1.0;}
.node-1{fill:#ff0000;stroke:#000000;stroke-width:0.050px;opacity:1.0;}
.node-2{fill:#505050;stroke:#000000;stroke-width:0.050px;opacity:1.0;}
.node-3{fill:#505050;stroke:#000000;stroke-width:0.050px;opacity:1.0;}
.node-4{fill:#505050;stroke:#000000;stroke-width:0.050px;opacity:1.0;}
.node-5{fill:#505050;stroke:#000000;stroke-width:0.050px;opacity:1.0;}
.node-6{fill:#505050;stroke:#000000;stroke-width:0.050px;opacity:1.0;}
.node-7{fill:#505050;stroke:#000000;stroke-width:0.050px;opacity:1.0;}
.node-8{fill:#505050;stroke:#000000;stroke-width:0.050px;opacity:1.0;}
.node-9{fill:#505050;stroke:#000000;stroke-width:0.050px;opacity:1.0;}
.node-10{fill:#505050;stroke:#000000;stroke-width:0.050px;opacity:1.0;}
.node-11{fill:#505050;stroke:#000000;stroke-width:0.050px;opacity:1.0;}
.node-12{fill:#505050;stroke:#000000;stroke-width:0.050px;opacity:1.0;}
.node-13{fill:#505050;stroke:#000000;stroke-width:0.050px;opacity:1.0;}
.node-14{fill:#505050;stroke:#000000;stroke-width:0.050px;opacity:1.0;}
.node-15{fill:#505050;stroke:#000000;stroke-width:0.050px;opacity:1.0;}
.node-16{fill:#ff0000;stroke:#000000;stroke-width:0.050px;opacity:1.0;}
.node-17{fill:#505050;stroke:#000000;stroke-width:0.050px;opacity:1.0;}
.node-18{fill:#505050;stroke:#000000;stroke-width:0.050px;opacity:1.0;}
.node-19{fill:#505050;stroke:#000000;stroke-width:0.050px;opacity:1.0;}
.node-20{fill:#ff0000;stroke:#000000;stroke-width:0.050px;opacity:1.0;}
.node-21{fill:#505050;stroke:#000000;stroke-width:0.050px;opacity:1.0;}
.node-22{fill:#ff0000;stroke:#000000;stroke-width:0.050px;opacity:1.0;}
.node-23{fill:#ff0000;stroke:#000000;stroke-width:0.050px;opacity:1.0;}
.node-24{fill:#505050;stroke:#000000;stroke-width:0.050px;opacity:1.0;}
.node-25{fill:#ff0000;stroke:#000000;stroke-width:0.050px;opacity:1.0;}
.node-26{fill:#505050;stroke:#000000;stroke-width:0.050px;opacity:1.0;}
.node-27{fill:#ff0000;stroke:#000000;stroke-width:0.050px;opacity:1.0;}
.node-28{fill:#505050;stroke:#000000;stroke-width:0.050px;opacity:1.0;}
.node-29{fill:#505050;stroke:#000000;stroke-width:0.050px;opacity:1.0;}
.node-30{fill:#505050;stroke:#000000;stroke-width:0.050px;opacity:1.0;}
.node-31{fill:#505050;stroke:#000000;stroke-width:0.050px;opacity:1.0;}
.node-32{fill:#0000ff;stroke:#000000;stroke-width:0.050px;opacity:1.0;}
.node-33{fill:#505050;stroke:#000000;stroke-width:0.050px;opacity:1.0;}
.node-34{fill:#505050;stroke:#000000;stroke-width:0.050px;opacity:1.0;}
.node-35{fill:#0000ff;stroke:#000000;stroke-width:0.050px;opacity:1.0;}
.node-36{fill:#0000ff;stroke:#000000;stroke-width:0.050px;opacity:1.0;}
.node-37{fill:#505050;stroke:#000000;stroke-width:0.050px;opacity:1.0;}
.node-38{fill:#0000ff;stroke:#000000;stroke-width:0.050px;opacity:1.0;}
.node-39{fill:#505050;stroke:#000000;stroke-width:0.050px;opacity:1.0;}
.node-40{fill:#505050;stroke:#000000;stroke-width:0.050px;opacity:1.0;}
.node-41{fill:#505050;stroke:#000000;stroke-width:0.050px;opacity:1.0;}
.node-42{fill:#505050;stroke:#000000;stroke-width:0.050px;opacity:1.0;}
.node-43{fill:#505050;stroke:#000000;stroke-width:0.050px;opacity:1.0;}
.node-44{fill:#505050;stroke:#000000;stroke-width:0.050px;opacity:1.0;}
.node-45{fill:#505050;stroke:#000000;stroke-width:0.050px;opacity:1.0;}
.node-46{fill:#ff0000;stroke:#000000;stroke-width:0.050px;opacity:1.0;}
.node-47{fill:#505050;stroke:#000000;stroke-width:0.050px;opacity:1.0;}
.node-48{fill:#ff0000;stroke:#000000;stroke-width:0.050px;opacity:1.0;}
.node-49{fill:#ff0000;stroke:#000000;stroke-width:0.050px;opacity:1.0;}
.node-50{fill:#ff0000;stroke:#000000;stroke-width:0.050px;opacity:1.0;}
.node-51{fill:#505050;stroke:#000000;stroke-width:0.050px;opacity:1.0;}
.node-52{fill:#505050;stroke:#000000;stroke-width:0.050px;opacity:1.0;}
.node-53{fill:#505050;stroke:#000000;stroke-width:0.050px;opacity:1.0;}
.node-54{fill:#505050;stroke:#000000;stroke-width:0.050px;opacity:1.0;}
</style>

</defs>
<polygon class="node-0" points="-0.245,-0.363 -0.243,-0.403 -0.239,-0.443 -0.231,-0.482 -0.220,-0.520 -0.206,-0.557 -0.190,-0.593 -0.170,-0.628 -0.148,-0.661 -0.124,-0.692 -0.097,-0.722 -0.067,-0.749 -0.036,-0.773 -0.003,-0.795 0.032,-0.815 0.068,-0.832 0.105,-0.845 0.143,-0.856 0.182,-0.864 0.222,-0.869 0.262,-0.870 0.302,-0.869 0.341,-0.864 0.380,-0.856 0.418,-0.845 0.456,-0.832 0.492,-0.815 0.526,-0.795 0.560,-0.773 0.591,-0.749 0.620,-0.722 0.647,-0.692 0.672,-0.661 0.694,-0.628 0.713,-0.593 0.730,-0.557 0.744,-0.520 0.754,-0.482 0.762,-0.443 0.767,-0.403 0.768,-0.363 0.767,-0.324 0.762,-0.284 0.754,-0.245 0.744,-0.207 0.730,-0.170 0.713,-0.133 0.694,-0.099 0.672,-0.066 0.647,-0.034 0.620,-0.005 0.591,0.022 0.560,0.046 0.526,0.069 0.492,0.088 0.456,0.105 0.418,0.118 0.380,0.129 0.341,0.137 0.302,0.142 0.262,0.143 0.222,0.142 0.182,0.137 0.143,0.129 0.105,0.118 0.068,0.105 0.032,0.088 -0.003,0.069 -0.036,0.046 -0.067,0.022 -0.097,-0.005 -0.124,-0.034 -0.148,-0.066 -0.170,-0.099 -0.190,-0.133 -0.206,-0.170 -0.220,-0.207 -0.231,-0.245 -0.239,-0.284 -0.243,-0.324"/>
<polygon class="node-1" points="-0.080,-0.509 -0.079,-0.539 -0.072,-0.569 -0.062,-0.598 -0.046,-0.626 -0.027,-0.650 -0.004,-0.672 0.022,-0.690 0.050,-0.704 0.079,-0.713 0.110,-0.718 0.140,-0.718 0.170,-0.713 0.199,-0.703 0.226,-0.690 0.250,-0.671 0.261,-0.660 0.279,-0.641 0.296,-0.622 0.305,-0.612 0.316,-0.600 0.334,-0.575 0.346,-0.548 0.355,-0.519 0.359,-0.489 0.357,-0.458 0.352,-0.428 0.341,-0.399 0.326,-0.372 0.307,-0.347 0.285,-0.325 0.259,-0.306 0.231,-0.292 0.202,-0.282 0.171,-0.277 0.140,-0.277 0.110,-0.281 0.081,-0.291 0.055,-0.304 0.030,-0.322 0.022,-0.331 0.009,-0.344 0.006,-0.347 0.000,-0.353 -0.019,-0.374 -0.040,-0.397 -0.056,-0.422 -0.069,-0.449 -0.077,-0.478"/>
<polygon class="node-2" points="-0.226,-0.685 -0.222,-0.715 -0.214,-0.745 -0.200,-0.773 -0.183,-0.799 -0.162,-0.822 -0.137,-0.842 -0.110,-0.858 -0.081,-0.869 -0.051,-0.876 -0.021,-0.878 0.010,-0.876 0.039,-0.869 0.067,-0.857 0.092,-0.841 0.115,-0.821 0.126,-0.808 0.157,-0.774 0.229,-0.695 0.239,-0.685 0.256,-0.666 0.262,-0.659 0.274,-0.646 0.290,-0.620 0.301,-0.593 0.309,-0.563 0.311,-0.533 0.309,-0.503 0.302,-0.472 0.290,-0.444 0.274,-0.417 0.254,-0.393 0.231,-0.372 0.205,-0.354 0.176,-0.341 0.146,-0.333 0.116,-0.329 0.085,-0.330 0.055,-0.335 0.027,-0.346 0.001,-0.360 -0.023,-0.379 -0.047,-0.405 -0.051,-0.409 -0.059,-0.418 -0.065,-0.424 -0.139,-0.505 -0.166,-0.535 -0.177,-0.546 -0.178,-0.548 -0.195,-0.570 -0.210,-0.596 -0.220,-0.624 -0.226,-0.654"/>
<polygon class="node-3" points="2.728,-0.699 2.730,-0.743 2.735,-0.788 2.744,-0.831 2.756,-0.874 2.771,-0.916 2.790,-0.956 2.812,-0.995 2.837,-1.032 2.864,-1.067 2.894,-1.100 2.927,-1.130 2.962,-1.157 2.999,-1.182 3.038,-1.204 3.078,-1.222 3.120,-1.238 3.163,-1.250 3.206,-1.259 3.251,-1.264 3.295,-1.266 3.339,-1.264 3.384,-1.259 3.427,-1.250 3.470,-1.238 3.512,-1.222 3.552,-1.204 3.591,-1.182 3.628,-1.157 3.663,-1.130 3.696,-1.100 3.726,-1.067 3.753,-1.032 3.778,-0.995 3.800,-0.956 3.819,-0.916 3.834,-0.874 3.846,-0.831 3.855,-0.788 3.860,-0.743 3.862,-0.699 3.862,-0.699 3.860,-0.654 3.855,-0.610 3.846,-0.567 3.834,-0.524 3.819,-0.482 3.800,-0.442 3.778,-0.403 3.753,-0.366 3.726,-0.331 3.696,-0.298 3.663,-0.268 3.628,-0.240 3.591,-0.216 3.552,-0.194 3.512,-0.175 3.470,-0.160 3.427,-0.148 3.384,-0.139 3.339,-0.134 3.295,-0.132 3.251,-0.134 3.206,-0.139 3.163,-0.148 3.120,-0.160 3.078,-0.175 3.038,-0.194 2.999,-0.216 2.962,-0.240 2.927,-0.268 2.894,-0.298 2.864,-0.331 2.837,-0.366 2.812,-0.403 2.790,-0.442 2.771,-0.482 2.756,-0.524 2.744,-0.567 2.735,-0.610 2.730,-0.654"/>
<polygon class="node-4" points="-0.598,-0.684 -0.596,-0.728 -0.591,-0.772 -0.582,-0.816 -0.570,-0.859 -0.555,-0.900 -0.536,-0.941 -0.514,-0.980 -0.489,-1.017 -0.462,-1.052 -0.432,-1.084 -0.399,-1.114 -0.364,-1.142 -0.327,-1.167 -0.288,-1.188 -0.248,-1.207 -0.206,-1.222 -0.163,-1.235 -0.120,-1.243 -0.075,-1.248 -0.031,-1.250 0.013,-1.248 0.058,-1.243 0.101,-1.235 0.144,-1.222 0.186,-1.207 0.226,-1.188 0.265,-1.167 0.302,-1.142 0.337,-1.114 0.370,-1.084 0.400,-1.052 0.427,-1.017 0.452,-0.980 0.474,-0.941 0.493,-0.900 0.508,-0.859 0.520,-0.816 0.529,-0.772 0.534,-0.728 0.536,-0.684 0.536,-0.684 0.534,-0.639 0.529,-0.595 0.520,-0.551 0.508,-0.508 0.493,-0.467 0.474,-0.426 0.452,-0.387 0.427,-0.350 0.400,-0.316 0.370,-0.283 0.337,-0.253 0.302,-0.225 0.265,-0.200 0.226,-0.179 0.186,-0.160 0.144,-0.145 0.101,-0.133 0.058,-0.124 0.013,-0.119 -0.031,-0.117 -0.075,-0.119 -0.120,-0.124 -0.163,-0.133 -0.206,-0.145 -0.248,-0.160 -0.288,-0.179 -0.327,-0.200 -0.364,-0.225 -0.399,-0.253 -0.432,-0.283 -0.462,-0.316 -0.489,-0.350 -0.514,-0.387 -0.536,-0.426 -0.555,-0.467 -0.570,-0.508 -0.582,-0.551 -0.591,-0.595 -0.596,-0.639"/>
<polygon class="node-5" points="2.200,0.225 2.202,0.212 2.208,0.202 2.372,0.021 2.795,-0.446 2.805,-0.452 2.818,-0.455 2.834,-0.454 2.852,-0.450 2.873,-0.442 2.896,-0.431 2.920,-0.418 2.944,-0.401 2.968,-0.382 2.992,-0.362 3.014,-0.340 3.035,-0.318 3.054,-0.295 3.069,-0.273 3.082,-0.251 3.091,-0.232 3.097,-0.214 3.098,-0.198 3.096,-0.185 3.091,-0.176 2.668,0.289 2.504,0.471 2.495,0.477 2.482,0.480 2.466,0.480 2.448,0.476 2.427,0.468 2.405,0.458 2.381,0.444 2.357,0.428 2.332,0.409 2.308,0.389 2.286,0.367 2.265,0.345 2.246,0.322 2.230,0.300 2.218,0.278 2.208,0.258 2.202,0.240"/>
<polygon class="node-6" points="3.345,-1.034 3.348,-1.059 3.356,-1.081 3.367,-1.101 3.377,-1.113 3.402,-1.144 3.458,-1.212 3.474,-1.228 3.494,-1.241 3.517,-1.250 3.542,-1.254 3.569,-1.255 3.596,-1.252 3.625,-1.244 3.653,-1.232 3.680,-1.217 3.705,-1.199 3.728,-1.178 3.748,-1.154 3.765,-1.129 3.778,-1.103 3.788,-1.076 3.792,-1.050 3.793,-1.024 3.789,-1.000 3.780,-0.978 3.768,-0.959 3.713,-0.892 3.690,-0.864 3.684,-0.857 3.668,-0.840 3.649,-0.826 3.627,-0.817 3.603,-0.811 3.576,-0.809 3.549,-0.812 3.521,-0.818 3.492,-0.829 3.465,-0.843 3.439,-0.861 3.416,-0.881 3.395,-0.904 3.377,-0.929 3.363,-0.955 3.353,-0.982 3.347,-1.008"/>
<polygon class="node-7" points="2.211,0.357 2.213,0.356 2.218,0.355 2.225,0.354 2.234,0.353 2.245,0.351 2.258,0.349 2.272,0.347 2.286,0.344 2.302,0.342 2.317,0.340 2.332,0.337 2.347,0.335 2.361,0.333 2.374,0.331 2.385,0.330 2.394,0.328 2.401,0.328 2.406,0.327 2.408,0.327 2.408,0.327 2.418,0.393 2.464,0.690 2.570,1.383 2.595,1.548 2.610,1.647 2.609,1.647 2.606,1.648 2.601,1.649 2.593,1.650 2.583,1.652 2.571,1.654 2.558,1.656 2.544,1.658 2.529,1.660 2.514,1.663 2.498,1.665 2.483,1.667 2.469,1.670 2.455,1.672 2.443,1.673 2.433,1.675 2.424,1.676 2.418,1.677 2.414,1.677 2.413,1.677 2.397,1.578 2.372,1.413 2.266,0.720 2.221,0.423"/>
<polygon class="node-8" points="-1.442,-0.151 -1.442,-0.169 -1.439,-0.183 -1.434,-0.194 -1.426,-0.200 -1.134,-0.348 -0.677,-0.580 -0.610,-0.614 -0.576,-0.631 -0.565,-0.632 -0.553,-0.628 -0.540,-0.620 -0.524,-0.608 -0.509,-0.592 -0.492,-0.572 -0.476,-0.550 -0.459,-0.525 -0.444,-0.498 -0.429,-0.470 -0.416,-0.442 -0.405,-0.414 -0.396,-0.387 -0.389,-0.361 -0.385,-0.338 -0.383,-0.317 -0.383,-0.300 -0.386,-0.287 -0.392,-0.277 -0.400,-0.272 -0.431,-0.256 -0.495,-0.224 -0.952,0.008 -1.247,0.158 -1.257,0.159 -1.268,0.157 -1.282,0.150 -1.297,0.138 -1.312,0.123 -1.329,0.104 -1.345,0.082 -1.362,0.058 -1.377,0.032 -1.392,0.004 -1.405,-0.024 -1.417,-0.052 -1.427,-0.080 -1.434,-0.106 -1.439,-0.130"/>
<polygon class="node-9" points="1.991,1.656 1.993,1.612 1.998,1.568 2.007,1.524 2.019,1.481 2.034,1.440 2.053,1.399 2.075,1.360 2.099,1.323 2.127,1.288 2.157,1.256 2.190,1.226 2.225,1.198 2.262,1.173 2.301,1.152 2.341,1.133 2.383,1.118 2.426,1.105 2.469,1.097 2.513,1.092 2.558,1.090 2.602,1.092 2.646,1.097 2.690,1.105 2.733,1.118 2.775,1.133 2.815,1.152 2.854,1.173 2.891,1.198 2.926,1.226 2.958,1.256 2.989,1.288 3.016,1.323 3.041,1.360 3.063,1.399 3.081,1.440 3.097,1.481 3.109,1.524 3.117,1.568 3.123,1.612 3.124,1.656 3.124,1.656 3.123,1.701 3.117,1.745 3.109,1.789 3.097,1.832 3.081,1.873 3.063,1.914 3.041,1.953 3.016,1.990 2.989,2.024 2.958,2.057 2.926,2.087 2.891,2.115 2.854,2.140 2.815,2.161 2.775,2.180 2.733,2.195 2.690,2.207 2.646,2.216 2.602,2.221 2.558,2.223 2.513,2.221 2.469,2.216 2.426,2.207 2.383,2.195 2.341,2.180 2.301,2.161 2.262,2.140 2.225,2.115 2.190,2.087 2.157,2.057 2.127,2.024 2.099,1.990 2.075,1.953 2.053,1.914 2.034,1.873 2.019,1.832 2.007,1.789 1.998,1.745 1.993,1.701"/>
<polygon class="node-10" points="1.789,0.336 1.791,0.292 1.796,0.248 1.805,0.204 1.817,0.161 1.832,0.119 1.851,0.079 1.873,0.040 1.898,0.003 1.925,-0.032 1.955,-0.065 1.988,-0.095 2.023,-0.122 2.060,-0.147 2.099,-0.169 2.139,-0.187 2.181,-0.203 2.224,-0.215 2.267,-0.224 2.312,-0.229 2.356,-0.231 2.400,-0.229 2.445,-0.224 2.488,-0.215 2.531,-0.203 2.573,-0.187 2.613,-0.169 2.652,-0.147 2.689,-0.122 2.724,-0.095 2.757,-0.065 2.787,-0.032 2.814,0.003 2.839,0.040 2.861,0.079 2.880,0.119 2.895,0.161 2.907,0.204 2.916,0.248 2.921,0.292 2.923,0.336 2.923,0.336 2.921,0.381 2.916,0.425 2.907,0.468 2.895,0.511 2.880,0.553 2.861,0.593 2.839,0.632 2.814,0.669 2.787,0.704 2.757,0.737 2.724,0.767 2.689,0.795 2.652,0.819 2.613,0.841 2.573,0.860 2.531,0.875 2.488,0.887 2.445,0.896 2.400,0.901 2.356,0.903 2.312,0.901 2.267,0.896 2.224,0.887 2.181,0.875 2.139,0.860 2.099,0.841 2.060,0.819 2.023,0.795 1.988,0.767 1.955,0.737 1.925,0.704 1.898,0.669 1.873,0.632 1.851,0.593 1.832,0.553 1.817,0.511 1.805,0.468 1.796,0.425 1.791,0.381"/>
<polygon class="node-11" points="2.390,0.907 2.396,0.872 2.581,0.844 2.582,0.843 2.597,0.943 2.612,1.042 2.617,1.075 2.622,1.108 2.620,1.108 2.616,1.109 2.609,1.110 2.600,1.112 2.590,1.113 2.577,1.115 2.564,1.117 2.549,1.120 2.534,1.122 2.518,1.124 2.503,1.127 2.488,1.129 2.474,1.131 2.461,1.133 2.450,1.135 2.441,1.136 2.420,1.105 2.415,1.072 2.399,0.973"/>
<polygon class="node-12" points="0.185,-0.342 0.185,-0.367 0.189,-0.394 0.197,-0.421 0.208,-0.449 0.221,-0.477 0.238,-0.503 0.257,-0.528 0.278,-0.551 0.300,-0.571 0.323,-0.587 0.346,-0.600 0.369,-0.609 0.391,-0.613 0.412,-0.613 0.430,-0.609 0.446,-0.600 0.626,-0.478 0.912,-0.283 1.067,-0.178 1.097,-0.157 1.126,-0.137 1.139,-0.123 1.148,-0.105 1.154,-0.085 1.156,-0.061 1.154,-0.036 1.149,-0.009 1.140,0.019 1.129,0.047 1.114,0.074 1.096,0.100 1.077,0.124 1.055,0.146 1.033,0.165 1.010,0.180 0.986,0.191 0.964,0.199 0.942,0.202 0.922,0.200 0.905,0.195 0.889,0.185 0.866,0.169 0.845,0.155 0.688,0.048 0.402,-0.146 0.219,-0.271 0.205,-0.284 0.195,-0.300 0.188,-0.320"/>
<polygon class="node-13" points="-1.903,-0.021 -1.902,-0.066 -1.896,-0.110 -1.888,-0.153 -1.876,-0.196 -1.860,-0.238 -1.841,-0.278 -1.820,-0.317 -1.795,-0.354 -1.767,-0.389 -1.737,-0.422 -1.705,-0.452 -1.670,-0.479 -1.633,-0.504 -1.594,-0.526 -1.553,-0.545 -1.512,-0.560 -1.469,-0.572 -1.425,-0.581 -1.381,-0.586 -1.337,-0.588 -1.292,-0.586 -1.248,-0.581 -1.204,-0.572 -1.161,-0.560 -1.120,-0.545 -1.079,-0.526 -1.041,-0.504 -1.004,-0.479 -0.969,-0.452 -0.936,-0.422 -0.906,-0.389 -0.878,-0.354 -0.853,-0.317 -0.832,-0.278 -0.813,-0.238 -0.798,-0.196 -0.786,-0.153 -0.777,-0.110 -0.772,-0.066 -0.770,-0.021 -0.770,-0.021 -0.772,0.023 -0.777,0.068 -0.786,0.111 -0.798,0.154 -0.813,0.196 -0.832,0.236 -0.853,0.275 -0.878,0.312 -0.906,0.347 -0.936,0.380 -0.969,0.410 -1.004,0.437 -1.041,0.462 -1.079,0.484 -1.120,0.502 -1.161,0.518 -1.204,0.530 -1.248,0.539 -1.292,0.544 -1.337,0.546 -1.381,0.544 -1.425,0.539 -1.469,0.530 -1.512,0.518 -1.553,0.502 -1.594,0.484 -1.633,0.462 -1.670,0.437 -1.705,0.410 -1.737,0.380 -1.767,0.347 -1.795,0.312 -1.820,0.275 -1.841,0.236 -1.860,0.196 -1.876,0.154 -1.888,0.111 -1.896,0.068 -1.902,0.023"/>
<polygon class="node-14" points="5.523,-3.672 5.525,-3.716 5.530,-3.761 5.539,-3.804 5.551,-3.847 5.566,-3.889 5.585,-3.929 5.606,-3.968 5.631,-4.005 5.659,-4.040 5.689,-4.073 5.722,-4.103 5.757,-4.130 5.794,-4.155 5.832,-4.177 5.873,-4.195 5.915,-4.211 5.957,-4.223 6.001,-4.232 6.045,-4.237 6.090,-4.239 6.134,-4.237 6.178,-4.232 6.222,-4.223 6.265,-4.211 6.306,-4.195 6.347,-4.177 6.386,-4.155 6.423,-4.130 6.458,-4.103 6.490,-4.073 6.521,-4.040 6.548,-4.005 6.573,-3.968 6.595,-3.929 6.613,-3.889 6.629,-3.847 6.641,-3.804 6.649,-3.761 6.655,-3.716 6.656,-3.672 6.655,-3.627 6.649,-3.583 6.641,-3.540 6.629,-3.497 6.613,-3.455 6.595,-3.415 6.573,-3.376 6.548,-3.339 6.521,-3.304 6.490,-3.271 6.458,-3.241 6.423,-3.213 6.386,-3.189 6.347,-3.167 6.306,-3.148 6.265,-3.133 6.222,-3.121 6.178,-3.112 6.134,-3.107 6.090,-3.105 6.045,-3.107 6.001,-3.112 5.957,-3.121 5.915,-3.133 5.873,-3.148 5.832,-3.167 5.794,-3.189 5.757,-3.213 5.722,-3.241 5.689,-3.271 5.659,-3.304 5.631,-3.339 5.606,-3.376 5.585,-3.415 5.566,-3.455 5.551,-3.497 5.539,-3.540 5.530,-3.583 5.525,-3.627"/>
<polygon class="node-15" points="1.257,2.275 1.259,2.259 1.265,2.247 1.273,2.238 1.421,2.144 2.009,1.769 2.021,1.765 2.034,1.765 2.050,1.769 2.067,1.778 2.086,1.791 2.105,1.807 2.125,1.826 2.144,1.848 2.163,1.873 2.180,1.899 2.196,1.926 2.210,1.953 2.222,1.980 2.231,2.005 2.237,2.030 2.241,2.051 2.241,2.070 2.238,2.086 2.232,2.098 2.224,2.107 1.635,2.482 1.489,2.575 1.478,2.579 1.464,2.579 1.449,2.575 1.431,2.567 1.413,2.555 1.394,2.539 1.374,2.520 1.355,2.498 1.336,2.474 1.318,2.448 1.302,2.421 1.288,2.394 1.276,2.367 1.267,2.341 1.261,2.317 1.257,2.294"/>
<polygon class="node-16" points="3.433,-1.126 3.433,-1.151 3.438,-1.175 3.447,-1.196 3.460,-1.215 3.514,-1.280 3.522,-1.290 3.672,-1.473 3.746,-1.563 3.775,-1.597 3.785,-1.608 3.803,-1.623 3.825,-1.633 3.849,-1.640 3.875,-1.642 3.902,-1.640 3.931,-1.634 3.959,-1.624 3.986,-1.611 4.012,-1.593 4.037,-1.573 4.058,-1.551 4.076,-1.526 4.091,-1.500 4.102,-1.474 4.109,-1.447 4.111,-1.421 4.109,-1.396 4.102,-1.374 4.091,-1.353 4.051,-1.304 3.982,-1.220 3.831,-1.036 3.823,-1.026 3.765,-0.956 3.748,-0.940 3.728,-0.928 3.705,-0.920 3.679,-0.916 3.652,-0.916 3.624,-0.920 3.596,-0.929 3.568,-0.941 3.541,-0.957 3.516,-0.976 3.494,-0.997 3.474,-1.021 3.458,-1.046 3.445,-1.073 3.437,-1.099"/>
<polygon class="node-17" points="-1.383,0.544 -1.379,0.538 -1.370,0.532 -1.356,0.525 -1.339,0.516 -1.318,0.508 -1.293,0.498 -1.267,0.489 -1.238,0.480 -1.208,0.471 -1.178,0.462 -1.148,0.454 -1.119,0.448 -1.092,0.442 -1.068,0.437 -1.046,0.434 -1.028,0.432 -1.014,0.432 -1.004,0.433 -0.999,0.436 -0.967,0.547 -0.790,1.170 -0.770,1.243 -0.738,1.353 -0.728,1.390 -0.730,1.395 -0.737,1.401 -0.748,1.408 -0.764,1.416 -0.784,1.424 -0.807,1.433 -0.832,1.443 -0.860,1.452 -0.889,1.461 -0.920,1.470 -0.950,1.478 -0.979,1.485 -1.007,1.491 -1.033,1.497 -1.056,1.500 -1.076,1.503 -1.092,1.504 -1.103,1.503 -1.110,1.501 -1.113,1.498 -1.123,1.461 -1.154,1.352 -1.175,1.279 -1.352,0.656 -1.383,0.548"/>
<polygon class="node-18" points="0.917,0.106 0.918,0.078 0.921,0.047 0.927,0.017 0.934,-0.014 0.943,-0.043 0.954,-0.071 0.966,-0.097 0.979,-0.119 0.993,-0.138 1.007,-0.154 1.021,-0.164 1.035,-0.170 1.048,-0.172 1.084,-0.164 1.121,-0.155 1.222,-0.132 1.289,-0.116 1.693,-0.023 1.794,0.001 1.860,0.016 1.890,0.023 1.902,0.027 1.913,0.035 1.923,0.047 1.931,0.064 1.936,0.084 1.940,0.108 1.941,0.135 1.940,0.164 1.937,0.194 1.932,0.224 1.925,0.255 1.916,0.285 1.905,0.313 1.893,0.338 1.880,0.361 1.866,0.380 1.852,0.396 1.838,0.407 1.824,0.413 1.811,0.415 1.773,0.407 1.704,0.391 1.603,0.367 1.198,0.273 1.130,0.258 1.029,0.234 0.999,0.227 0.967,0.220 0.955,0.216 0.944,0.208 0.935,0.195 0.927,0.178 0.922,0.157 0.918,0.133"/>
<polygon class="node-19" points="-1.487,1.444 -1.485,1.400 -1.480,1.355 -1.471,1.312 -1.459,1.269 -1.444,1.227 -1.425,1.187 -1.403,1.148 -1.379,1.111 -1.351,1.076 -1.321,1.043 -1.288,1.013 -1.253,0.986 -1.216,0.961 -1.178,0.939 -1.137,0.921 -1.095,0.905 -1.053,0.893 -1.009,0.884 -0.965,0.879 -0.920,0.877 -0.876,0.879 -0.832,0.884 -0.788,0.893 -0.745,0.905 -0.703,0.921 -0.663,0.939 -0.624,0.961 -0.587,0.986 -0.552,1.013 -0.520,1.043 -0.489,1.076 -0.462,1.111 -0.437,1.148 -0.415,1.187 -0.397,1.227 -0.381,1.269 -0.369,1.312 -0.361,1.355 -0.355,1.400 -0.354,1.444 -0.354,1.444 -0.355,1.488 -0.361,1.533 -0.369,1.576 -0.381,1.619 -0.397,1.661 -0.415,1.701 -0.437,1.740 -0.462,1.777 -0.489,1.812 -0.520,1.845 -0.552,1.875 -0.587,1.902 -0.624,1.927 -0.663,1.949 -0.703,1.968 -0.745,1.983 -0.788,1.995 -0.832,2.004 -0.876,2.009 -0.920,2.011 -0.965,2.009 -1.009,2.004 -1.053,1.995 -1.095,1.983 -1.137,1.968 -1.178,1.949 -1.216,1.927 -1.253,1.902 -1.288,1.875 -1.321,1.845 -1.351,1.812 -1.379,1.777 -1.403,1.740 -1.425,1.701 -1.444,1.661 -1.459,1.619 -1.471,1.576 -1.480,1.533 -1.485,1.488"/>
<polygon class="node-20" points="1.786,-3.030 1.788,-3.070 1.793,-3.109 1.800,-3.148 1.811,-3.187 1.825,-3.224 1.842,-3.260 1.861,-3.295 1.883,-3.328 1.908,-3.359 1.935,-3.388 1.964,-3.415 1.995,-3.440 2.028,-3.462 2.063,-3.481 2.099,-3.498 2.137,-3.512 2.175,-3.523 2.214,-3.530 2.253,-3.535 2.293,-3.537 2.333,-3.535 2.372,-3.530 2.411,-3.523 2.450,-3.512 2.487,-3.498 2.523,-3.481 2.558,-3.462 2.591,-3.440 2.622,-3.415 2.651,-3.388 2.678,-3.359 2.703,-3.328 2.725,-3.295 2.745,-3.260 2.761,-3.224 2.775,-3.187 2.786,-3.148 2.794,-3.109 2.798,-3.070 2.800,-3.030 2.798,-2.990 2.794,-2.951 2.786,-2.912 2.775,-2.873 2.761,-2.836 2.745,-2.800 2.725,-2.765 2.703,-2.732 2.678,-2.701 2.651,-2.672 2.622,-2.645 2.591,-2.620 2.558,-2.598 2.523,-2.579 2.487,-2.562 2.450,-2.548 2.411,-2.537 2.372,-2.530 2.333,-2.525 2.293,-2.523 2.253,-2.525 2.214,-2.530 2.175,-2.537 2.137,-2.548 2.099,-2.562 2.063,-2.579 2.028,-2.598 1.995,-2.620 1.964,-2.645 1.935,-2.672 1.908,-2.701 1.883,-2.732 1.861,-2.765 1.842,-2.800 1.825,-2.836 1.811,-2.873 1.800,-2.912 1.793,-2.951 1.788,-2.990"/>
<polygon class="node-21" points="-0.509,1.396 -0.509,1.365 -0.506,1.335 -0.502,1.308 -0.497,1.282 -0.489,1.260 -0.480,1.242 -0.470,1.228 -0.459,1.218 -0.447,1.213 -0.426,1.212 -0.256,1.201 -0.244,1.203 -0.232,1.210 -0.220,1.222 -0.208,1.238 -0.198,1.259 -0.189,1.282 -0.181,1.309 -0.175,1.338 -0.170,1.368 -0.167,1.399 -0.167,1.431 -0.168,1.461 -0.171,1.490 -0.176,1.517 -0.182,1.541 -0.190,1.561 -0.200,1.578 -0.210,1.590 -0.222,1.597 -0.234,1.600 -0.401,1.611 -0.414,1.611 -0.426,1.611 -0.438,1.606 -0.450,1.597 -0.462,1.582 -0.473,1.564 -0.483,1.542 -0.491,1.516 -0.498,1.488 -0.504,1.458 -0.507,1.427"/>
<polygon class="node-22" points="3.424,-1.472 3.425,-1.512 3.430,-1.551 3.438,-1.590 3.449,-1.629 3.462,-1.666 3.479,-1.702 3.499,-1.737 3.521,-1.770 3.545,-1.801 3.572,-1.830 3.601,-1.857 3.633,-1.882 3.666,-1.904 3.701,-1.923 3.737,-1.940 3.774,-1.954 3.812,-1.965 3.851,-1.972 3.891,-1.977 3.931,-1.979 3.970,-1.977 4.010,-1.972 4.049,-1.965 4.087,-1.954 4.124,-1.940 4.161,-1.923 4.195,-1.904 4.228,-1.882 4.260,-1.857 4.289,-1.830 4.316,-1.801 4.340,-1.770 4.363,-1.737 4.382,-1.702 4.399,-1.666 4.412,-1.629 4.423,-1.590 4.431,-1.551 4.436,-1.512 4.437,-1.472 4.437,-1.472 4.436,-1.432 4.431,-1.393 4.423,-1.354 4.412,-1.315 4.399,-1.278 4.382,-1.242 4.363,-1.207 4.340,-1.174 4.316,-1.143 4.289,-1.114 4.260,-1.087 4.228,-1.062 4.195,-1.040 4.161,-1.021 4.124,-1.004 4.087,-0.990 4.049,-0.979 4.010,-0.972 3.970,-0.967 3.931,-0.965 3.891,-0.967 3.851,-0.972 3.812,-0.979 3.774,-0.990 3.737,-1.004 3.701,-1.021 3.666,-1.040 3.633,-1.062 3.601,-1.087 3.572,-1.114 3.545,-1.143 3.521,-1.174 3.499,-1.207 3.479,-1.242 3.462,-1.278 3.449,-1.315 3.438,-1.354 3.430,-1.393 3.425,-1.432"/>
<polygon class="node-23" points="2.737,-2.981 2.743,-3.035 2.759,-3.082 2.776,-3.102 2.844,-3.075 2.896,-3.054 2.921,-3.044 2.926,-3.041 2.930,-3.036 2.933,-3.029 2.935,-3.020 2.936,-3.010 2.936,-2.998 2.934,-2.984 2.931,-2.970 2.927,-2.956 2.922,-2.941 2.916,-2.927 2.909,-2.913 2.902,-2.900 2.894,-2.888 2.886,-2.878 2.878,-2.869 2.870,-2.863 2.863,-2.859 2.856,-2.857 2.850,-2.857 2.822,-2.868 2.769,-2.890 2.758,-2.894 2.753,-2.896 2.745,-2.908 2.743,-2.917"/>
<polygon class="node-24" points="0.814,2.407 0.816,2.362 0.821,2.318 0.830,2.274 0.842,2.231 0.858,2.190 0.876,2.149 0.898,2.110 0.923,2.073 0.950,2.039 0.980,2.006 1.013,1.976 1.048,1.948 1.085,1.923 1.124,1.902 1.164,1.883 1.206,1.868 1.249,1.856 1.292,1.847 1.337,1.842 1.381,1.840 1.426,1.842 1.470,1.847 1.513,1.856 1.556,1.868 1.598,1.883 1.638,1.902 1.677,1.923 1.714,1.948 1.749,1.976 1.782,2.006 1.812,2.039 1.839,2.073 1.864,2.110 1.886,2.149 1.905,2.190 1.920,2.231 1.932,2.274 1.941,2.318 1.946,2.362 1.948,2.407 1.946,2.451 1.941,2.495 1.932,2.539 1.920,2.582 1.905,2.623 1.886,2.664 1.864,2.703 1.839,2.740 1.812,2.775 1.782,2.807 1.749,2.837 1.714,2.865 1.677,2.890 1.638,2.911 1.598,2.930 1.556,2.945 1.513,2.958 1.470,2.966 1.426,2.971 1.381,2.973 1.337,2.971 1.292,2.966 1.249,2.958 1.206,2.945 1.164,2.930 1.124,2.911 1.085,2.890 1.048,2.865 1.013,2.837 0.980,2.807 0.950,2.775 0.923,2.740 0.898,2.703 0.876,2.664 0.858,2.623 0.842,2.582 0.830,2.539 0.821,2.495 0.816,2.451"/>
<polygon class="node-25" points="2.559,-2.674 2.577,-2.720 2.606,-2.761 2.643,-2.796 2.683,-2.816 2.690,-2.818 2.696,-2.818 2.701,-2.816 2.714,-2.812 2.739,-2.801 2.791,-2.781 2.796,-2.777 2.800,-2.772 2.803,-2.764 2.804,-2.755 2.805,-2.744 2.804,-2.732 2.802,-2.718 2.798,-2.704 2.794,-2.689 2.789,-2.674 2.782,-2.660 2.775,-2.646 2.768,-2.634 2.760,-2.622 2.752,-2.613 2.744,-2.605 2.737,-2.599 2.729,-2.595 2.723,-2.594 2.717,-2.595 2.611,-2.637 2.599,-2.642 2.587,-2.647 2.575,-2.652 2.569,-2.654 2.565,-2.659 2.561,-2.666"/>
<polygon class="node-26" points="0.441,0.024 0.443,-0.020 0.448,-0.065 0.457,-0.108 0.469,-0.151 0.484,-0.193 0.503,-0.233 0.525,-0.272 0.549,-0.309 0.577,-0.344 0.607,-0.377 0.640,-0.407 0.675,-0.434 0.712,-0.459 0.751,-0.481 0.791,-0.500 0.833,-0.515 0.876,-0.527 0.919,-0.536 0.963,-0.541 1.008,-0.543 1.052,-0.541 1.096,-0.536 1.140,-0.527 1.183,-0.515 1.225,-0.500 1.265,-0.481 1.304,-0.459 1.341,-0.434 1.376,-0.407 1.409,-0.377 1.439,-0.344 1.466,-0.309 1.491,-0.272 1.513,-0.233 1.531,-0.193 1.547,-0.151 1.559,-0.108 1.568,-0.065 1.573,-0.020 1.574,0.024 1.574,0.024 1.573,0.068 1.568,0.113 1.559,0.156 1.547,0.199 1.531,0.241 1.513,0.281 1.491,0.320 1.466,0.357 1.439,0.392 1.409,0.425 1.376,0.455 1.341,0.482 1.304,0.507 1.265,0.529 1.225,0.548 1.183,0.563 1.140,0.575 1.096,0.584 1.052,0.589 1.008,0.591 0.963,0.589 0.919,0.584 0.876,0.575 0.833,0.563 0.791,0.548 0.751,0.529 0.712,0.507 0.675,0.482 0.640,0.455 0.607,0.425 0.577,0.392 0.549,0.357 0.525,0.320 0.503,0.281 0.484,0.241 0.469,0.199 0.457,0.156 0.448,0.113 0.443,0.068"/>
<polygon class="node-27" points="3.459,-1.960 3.463,-1.972 3.471,-1.985 3.483,-1.999 3.499,-2.015 3.518,-2.031 3.540,-2.047 3.565,-2.064 3.592,-2.079 3.620,-2.094 3.648,-2.107 3.676,-2.119 3.703,-2.129 3.728,-2.136 3.751,-2.141 3.772,-2.144 3.789,-2.144 3.803,-2.142 3.812,-2.137 3.817,-2.130 3.824,-2.117 3.860,-2.046 3.882,-2.004 3.905,-1.960 3.906,-1.950 3.902,-1.939 3.894,-1.926 3.883,-1.911 3.867,-1.896 3.848,-1.880 3.825,-1.863 3.801,-1.847 3.774,-1.831 3.747,-1.817 3.718,-1.803 3.690,-1.792 3.663,-1.782 3.638,-1.774 3.614,-1.769 3.594,-1.766 3.576,-1.766 3.563,-1.768 3.553,-1.773 3.547,-1.780 3.526,-1.821 3.504,-1.863 3.468,-1.935 3.460,-1.951"/>
<polygon class="node-28" points="0.754,2.007 0.754,1.995 0.758,1.981 0.766,1.964 0.777,1.946 0.792,1.926 0.809,1.904 0.829,1.882 0.850,1.860 0.873,1.839 0.897,1.819 0.921,1.800 0.944,1.783 0.967,1.769 0.988,1.757 1.007,1.749 1.024,1.743 1.037,1.742 1.048,1.743 1.055,1.748 1.090,1.787 1.149,1.852 1.184,1.891 1.188,1.898 1.189,1.908 1.186,1.922 1.179,1.938 1.169,1.956 1.155,1.976 1.139,1.997 1.120,2.018 1.099,2.040 1.076,2.062 1.053,2.083 1.029,2.102 1.005,2.119 0.982,2.134 0.960,2.147 0.941,2.156 0.923,2.163 0.909,2.166 0.897,2.165 0.889,2.161 0.853,2.121 0.793,2.055 0.757,2.015"/>
<polygon class="node-29" points="0.535,0.616 0.537,0.609 0.543,0.594 0.601,0.461 0.615,0.427 0.621,0.422 0.631,0.419 0.645,0.418 0.662,0.419 0.684,0.422 0.707,0.428 0.734,0.435 0.761,0.444 0.790,0.455 0.819,0.467 0.848,0.480 0.875,0.494 0.900,0.508 0.923,0.522 0.943,0.536 0.959,0.548 0.971,0.560 0.979,0.571 0.983,0.580 0.982,0.587 0.968,0.620 0.910,0.753 0.902,0.771 0.896,0.776 0.885,0.779 0.870,0.780 0.852,0.778 0.830,0.774 0.806,0.768 0.779,0.760 0.751,0.751 0.723,0.740 0.694,0.728 0.665,0.715 0.639,0.701 0.614,0.687 0.591,0.673 0.572,0.659 0.557,0.647 0.545,0.635 0.538,0.625"/>
<polygon class="node-30" points="4.998,-4.278 4.999,-4.305 5.005,-4.332 5.014,-4.361 5.026,-4.389 5.042,-4.415 5.060,-4.441 5.081,-4.464 5.104,-4.484 5.128,-4.501 5.153,-4.514 5.178,-4.523 5.203,-4.528 5.226,-4.528 5.247,-4.524 5.267,-4.516 5.320,-4.478 5.461,-4.375 5.577,-4.291 5.764,-4.155 5.860,-4.086 5.884,-4.068 5.899,-4.053 5.910,-4.035 5.918,-4.013 5.922,-3.989 5.922,-3.963 5.918,-3.936 5.910,-3.908 5.899,-3.880 5.884,-3.852 5.867,-3.826 5.847,-3.802 5.824,-3.781 5.801,-3.763 5.776,-3.748 5.751,-3.738 5.726,-3.731 5.703,-3.729 5.680,-3.732 5.660,-3.739 5.643,-3.749 5.620,-3.766 5.529,-3.832 5.343,-3.967 5.226,-4.052 5.087,-4.153 5.047,-4.182 5.031,-4.195 5.017,-4.211 5.007,-4.231 5.001,-4.253"/>
<polygon class="node-31" points="2.835,-2.891 2.835,-2.903 2.837,-2.916 2.840,-2.930 2.844,-2.945 2.849,-2.959 2.855,-2.974 2.862,-2.988 2.869,-3.001 2.877,-3.013 2.885,-3.023 2.893,-3.031 2.900,-3.038 2.908,-3.042 2.915,-3.044 2.921,-3.044 2.935,-3.038 3.054,-2.991 3.357,-2.869 3.448,-2.833 3.453,-2.830 3.457,-2.825 3.460,-2.817 3.462,-2.808 3.463,-2.797 3.462,-2.785 3.460,-2.771 3.457,-2.757 3.453,-2.743 3.447,-2.728 3.441,-2.714 3.434,-2.700 3.427,-2.687 3.419,-2.675 3.411,-2.665 3.403,-2.657 3.396,-2.651 3.388,-2.647 3.382,-2.646 3.376,-2.646 3.283,-2.684 2.980,-2.805 2.862,-2.852 2.850,-2.857 2.845,-2.860 2.841,-2.864 2.837,-2.871 2.835,-2.880"/>
<polygon class="node-32" points="-0.323,1.369 -0.322,1.339 -0.319,1.310 -0.314,1.283 -0.308,1.259 -0.299,1.239 -0.290,1.222 -0.279,1.210 -0.268,1.203 -0.256,1.201 -0.173,1.195 0.232,1.169 0.401,1.158 0.413,1.158 0.425,1.157 0.437,1.162 0.449,1.171 0.461,1.185 0.472,1.203 0.482,1.225 0.490,1.250 0.498,1.278 0.503,1.308 0.507,1.339 0.509,1.370 0.509,1.401 0.507,1.431 0.503,1.459 0.497,1.484 0.490,1.507 0.481,1.525 0.471,1.540 0.460,1.550 0.448,1.555 0.426,1.557 0.258,1.568 -0.148,1.594 -0.234,1.600 -0.246,1.597 -0.258,1.590 -0.270,1.578 -0.281,1.562 -0.292,1.542 -0.301,1.518 -0.309,1.491 -0.315,1.462 -0.320,1.432 -0.322,1.401"/>
<polygon class="node-33" points="3.167,-2.530 3.171,-2.542 3.180,-2.555 3.193,-2.570 3.210,-2.586 3.229,-2.602 3.252,-2.618 3.277,-2.634 3.304,-2.650 3.332,-2.664 3.360,-2.677 3.388,-2.689 3.415,-2.698 3.440,-2.705 3.463,-2.710 3.483,-2.712 3.499,-2.712 3.512,-2.709 3.521,-2.704 3.525,-2.696 3.531,-2.686 3.539,-2.672 3.626,-2.501 3.706,-2.345 3.751,-2.258 3.795,-2.172 3.808,-2.148 3.814,-2.134 3.818,-2.126 3.817,-2.116 3.812,-2.104 3.802,-2.090 3.789,-2.075 3.771,-2.060 3.751,-2.043 3.728,-2.027 3.702,-2.011 3.675,-1.996 3.647,-1.981 3.619,-1.969 3.591,-1.958 3.565,-1.949 3.540,-1.942 3.518,-1.938 3.498,-1.936 3.482,-1.937 3.470,-1.940 3.462,-1.946 3.454,-1.961 3.438,-1.993 3.394,-2.077 3.351,-2.161 3.271,-2.318 3.183,-2.488 3.176,-2.502 3.167,-2.520"/>
<polygon class="node-34" points="2.703,-2.628 2.704,-2.640 2.705,-2.653 2.708,-2.667 2.712,-2.682 2.718,-2.697 2.724,-2.711 2.730,-2.725 2.738,-2.738 2.745,-2.750 2.753,-2.760 2.761,-2.769 2.769,-2.775 2.776,-2.779 2.783,-2.781 2.789,-2.781 2.804,-2.775 3.028,-2.686 3.305,-2.575 3.319,-2.569 3.324,-2.565 3.327,-2.559 3.330,-2.551 3.331,-2.541 3.331,-2.529 3.330,-2.516 3.327,-2.502 3.324,-2.488 3.319,-2.473 3.313,-2.459 3.307,-2.444 3.300,-2.431 3.292,-2.419 3.284,-2.408 3.276,-2.399 3.268,-2.392 3.261,-2.387 3.254,-2.384 3.247,-2.383 3.242,-2.385 3.230,-2.389 2.954,-2.500 2.730,-2.589 2.719,-2.594 2.713,-2.597 2.709,-2.602 2.706,-2.609 2.704,-2.617"/>
<polygon class="node-35" points="0.278,1.481 0.279,1.469 0.283,1.455 0.291,1.438 0.303,1.420 0.317,1.399 0.335,1.378 0.354,1.356 0.376,1.334 0.399,1.313 0.423,1.293 0.447,1.274 0.470,1.257 0.493,1.243 0.514,1.232 0.533,1.223 0.549,1.218 0.563,1.216 0.573,1.218 0.580,1.223 0.603,1.249 0.626,1.275 0.745,1.406 0.781,1.445 1.019,1.708 1.051,1.745 1.057,1.751 1.058,1.761 1.056,1.773 1.051,1.788 1.041,1.806 1.029,1.825 1.013,1.846 0.995,1.867 0.974,1.889 0.952,1.911 0.929,1.932 0.905,1.952 0.881,1.970 0.858,1.986 0.836,1.999 0.816,2.010 0.797,2.017 0.782,2.021 0.770,2.021 0.761,2.018 0.722,1.976 0.484,1.714 0.449,1.674 0.330,1.543 0.306,1.517 0.281,1.489"/>
<polygon class="node-36" points="0.247,1.278 0.283,1.194 0.478,0.744 0.521,0.644 0.535,0.613 0.538,0.607 0.546,0.603 0.558,0.601 0.575,0.601 0.594,0.604 0.617,0.608 0.642,0.615 0.669,0.623 0.698,0.633 0.727,0.645 0.755,0.658 0.783,0.671 0.810,0.685 0.834,0.699 0.855,0.713 0.873,0.726 0.887,0.738 0.897,0.750 0.902,0.759 0.903,0.767 0.888,0.803 0.845,0.903 0.650,1.352 0.614,1.435 0.610,1.441 0.601,1.444 0.588,1.446 0.571,1.445 0.550,1.442 0.527,1.437 0.501,1.430 0.474,1.421 0.445,1.411 0.416,1.399 0.388,1.386 0.360,1.372 0.334,1.358 0.311,1.344 0.290,1.331 0.273,1.318 0.260,1.305 0.251,1.295 0.247,1.285"/>
<polygon class="node-37" points="2.780,-2.608 2.781,-2.653 2.787,-2.697 2.795,-2.740 2.807,-2.783 2.823,-2.825 2.841,-2.865 2.863,-2.904 2.888,-2.941 2.915,-2.976 2.946,-3.009 2.978,-3.039 3.013,-3.067 3.050,-3.091 3.089,-3.113 3.129,-3.132 3.171,-3.147 3.214,-3.159 3.258,-3.168 3.302,-3.173 3.346,-3.175 3.391,-3.173 3.435,-3.168 3.479,-3.159 3.521,-3.147 3.563,-3.132 3.604,-3.113 3.642,-3.091 3.679,-3.067 3.714,-3.039 3.747,-3.009 3.777,-2.976 3.805,-2.941 3.829,-2.904 3.851,-2.865 3.870,-2.825 3.885,-2.783 3.897,-2.740 3.906,-2.697 3.911,-2.653 3.913,-2.608 3.911,-2.564 3.906,-2.520 3.897,-2.476 3.885,-2.433 3.870,-2.391 3.851,-2.351 3.829,-2.312 3.805,-2.275 3.777,-2.240 3.747,-2.208 3.714,-2.177 3.679,-2.150 3.642,-2.125 3.604,-2.103 3.563,-2.085 3.521,-2.069 3.479,-2.057 3.435,-2.049 3.391,-2.043 3.346,-2.042 3.302,-2.043 3.258,-2.049 3.214,-2.057 3.171,-2.069 3.129,-2.085 3.089,-2.103 3.050,-2.125 3.013,-2.150 2.978,-2.177 2.946,-2.208 2.915,-2.240 2.888,-2.275 2.863,-2.312 2.841,-2.351 2.823,-2.391 2.807,-2.433 2.795,-2.476 2.787,-2.520 2.781,-2.564"/>
<polygon class="node-38" points="-0.086,1.356 -0.084,1.316 -0.080,1.276 -0.072,1.236 -0.061,1.197 -0.047,1.159 -0.030,1.122 -0.010,1.086 0.013,1.053 0.038,1.021 0.065,0.991 0.095,0.964 0.127,0.938 0.161,0.916 0.196,0.896 0.233,0.879 0.271,0.865 0.310,0.854 0.350,0.846 0.390,0.841 0.431,0.840 0.471,0.841 0.511,0.846 0.551,0.854 0.590,0.865 0.628,0.879 0.665,0.896 0.701,0.916 0.734,0.938 0.766,0.964 0.796,0.991 0.823,1.021 0.849,1.053 0.871,1.086 0.891,1.122 0.908,1.159 0.922,1.197 0.933,1.236 0.941,1.276 0.946,1.316 0.947,1.356 0.947,1.356 0.946,1.397 0.941,1.437 0.933,1.477 0.922,1.516 0.908,1.554 0.891,1.591 0.871,1.626 0.849,1.660 0.823,1.692 0.796,1.722 0.766,1.749 0.734,1.774 0.701,1.797 0.665,1.817 0.628,1.834 0.590,1.848 0.551,1.859 0.511,1.867 0.471,1.871 0.431,1.873 0.390,1.871 0.350,1.867 0.310,1.859 0.271,1.848 0.233,1.834 0.196,1.817 0.161,1.797 0.127,1.774 0.095,1.749 0.065,1.722 0.038,1.692 0.013,1.660 -0.010,1.626 -0.030,1.591 -0.047,1.554 -0.061,1.516 -0.072,1.477 -0.080,1.437 -0.084,1.397"/>
<polygon class="node-39" points="4.590,-4.349 4.592,-4.394 4.597,-4.438 4.606,-4.481 4.618,-4.524 4.633,-4.566 4.652,-4.606 4.674,-4.645 4.699,-4.682 4.726,-4.717 4.756,-4.750 4.789,-4.780 4.824,-4.808 4.861,-4.832 4.900,-4.854 4.940,-4.873 4.982,-4.888 5.025,-4.900 5.068,-4.909 5.112,-4.914 5.157,-4.916 5.201,-4.914 5.246,-4.909 5.289,-4.900 5.332,-4.888 5.374,-4.873 5.414,-4.854 5.453,-4.832 5.490,-4.808 5.525,-4.780 5.558,-4.750 5.588,-4.717 5.615,-4.682 5.640,-4.645 5.662,-4.606 5.680,-4.566 5.696,-4.524 5.708,-4.481 5.717,-4.438 5.722,-4.394 5.724,-4.349 5.722,-4.305 5.717,-4.260 5.708,-4.217 5.696,-4.174 5.680,-4.132 5.662,-4.092 5.640,-4.053 5.615,-4.016 5.588,-3.981 5.558,-3.948 5.525,-3.918 5.490,-3.891 5.453,-3.866 5.414,-3.844 5.374,-3.826 5.332,-3.810 5.289,-3.798 5.246,-3.789 5.201,-3.784 5.157,-3.782 5.112,-3.784 5.068,-3.789 5.025,-3.798 4.982,-3.810 4.940,-3.826 4.900,-3.844 4.861,-3.866 4.824,-3.891 4.789,-3.918 4.756,-3.948 4.726,-3.981 4.699,-4.016 4.674,-4.053 4.652,-4.092 4.633,-4.132 4.618,-4.174 4.606,-4.217 4.597,-4.260 4.592,-4.305"/>
<polygon class="node-40" points="3.446,-2.959 3.449,-2.983 3.456,-3.004 3.467,-3.023 3.494,-3.052 3.551,-3.111 3.649,-3.213 3.900,-3.475 3.956,-3.534 3.973,-3.551 3.989,-3.566 4.007,-3.578 4.029,-3.585 4.053,-3.589 4.078,-3.588 4.105,-3.583 4.132,-3.574 4.159,-3.562 4.185,-3.545 4.209,-3.526 4.232,-3.504 4.251,-3.480 4.268,-3.454 4.281,-3.428 4.290,-3.401 4.295,-3.375 4.296,-3.350 4.292,-3.326 4.285,-3.305 4.273,-3.287 4.251,-3.264 4.191,-3.201 3.937,-2.936 3.840,-2.835 3.781,-2.773 3.754,-2.746 3.736,-2.734 3.714,-2.726 3.691,-2.722 3.665,-2.723 3.639,-2.727 3.612,-2.736 3.585,-2.748 3.559,-2.764 3.534,-2.783 3.512,-2.805 3.492,-2.829 3.475,-2.855 3.461,-2.881 3.452,-2.908 3.447,-2.934"/>
<polygon class="node-41" points="3.973,-3.522 3.974,-3.540 3.980,-3.556 3.989,-3.567 4.558,-4.079 4.639,-4.152 4.666,-4.176 4.680,-4.182 4.697,-4.185 4.716,-4.183 4.737,-4.178 4.759,-4.169 4.782,-4.156 4.806,-4.140 4.830,-4.121 4.852,-4.100 4.873,-4.076 4.892,-4.052 4.909,-4.027 4.923,-4.001 4.934,-3.977 4.942,-3.953 4.945,-3.931 4.946,-3.912 4.942,-3.895 4.935,-3.881 4.924,-3.871 4.899,-3.849 4.826,-3.782 4.257,-3.271 4.245,-3.263 4.230,-3.258 4.212,-3.258 4.191,-3.262 4.169,-3.269 4.146,-3.281 4.123,-3.295 4.099,-3.313 4.076,-3.333 4.054,-3.356 4.034,-3.380 4.016,-3.405 4.001,-3.430 3.989,-3.455 3.980,-3.479 3.974,-3.502"/>
<polygon class="node-42" points="5.267,-4.700 5.268,-4.724 5.273,-4.746 5.282,-4.765 5.295,-4.781 5.454,-4.946 5.694,-5.196 5.815,-5.322 5.832,-5.335 5.851,-5.344 5.873,-5.349 5.897,-5.350 5.923,-5.347 5.950,-5.340 5.976,-5.329 6.003,-5.314 6.028,-5.296 6.051,-5.275 6.073,-5.252 6.091,-5.228 6.106,-5.202 6.118,-5.175 6.125,-5.149 6.129,-5.124 6.128,-5.100 6.123,-5.078 6.114,-5.059 6.101,-5.042 5.983,-4.919 5.742,-4.668 5.580,-4.500 5.563,-4.488 5.544,-4.479 5.522,-4.474 5.498,-4.473 5.472,-4.476 5.445,-4.483 5.418,-4.495 5.392,-4.509 5.367,-4.527 5.344,-4.548 5.322,-4.571 5.304,-4.596 5.289,-4.622 5.278,-4.648 5.270,-4.675"/>
<polygon class="node-43" points="3.557,-3.419 3.558,-3.463 3.564,-3.508 3.572,-3.551 3.584,-3.594 3.600,-3.636 3.618,-3.676 3.640,-3.715 3.665,-3.752 3.692,-3.787 3.723,-3.820 3.755,-3.850 3.790,-3.877 3.827,-3.902 3.866,-3.924 3.906,-3.942 3.948,-3.958 3.991,-3.970 4.035,-3.979 4.079,-3.984 4.123,-3.986 4.168,-3.984 4.212,-3.979 4.256,-3.970 4.298,-3.958 4.340,-3.942 4.381,-3.924 4.419,-3.902 4.456,-3.877 4.491,-3.850 4.524,-3.820 4.554,-3.787 4.582,-3.752 4.606,-3.715 4.628,-3.676 4.647,-3.636 4.662,-3.594 4.674,-3.551 4.683,-3.508 4.688,-3.463 4.690,-3.419 4.688,-3.374 4.683,-3.330 4.674,-3.287 4.662,-3.244 4.647,-3.202 4.628,-3.162 4.606,-3.123 4.582,-3.086 4.554,-3.051 4.524,-3.018 4.491,-2.988 4.456,-2.961 4.419,-2.936 4.381,-2.914 4.340,-2.895 4.298,-2.880 4.256,-2.868 4.212,-2.859 4.168,-2.854 4.123,-2.852 4.079,-2.854 4.035,-2.859 3.991,-2.868 3.948,-2.880 3.906,-2.895 3.866,-2.914 3.827,-2.936 3.790,-2.961 3.755,-2.988 3.723,-3.018 3.692,-3.051 3.665,-3.086 3.640,-3.123 3.618,-3.162 3.600,-3.202 3.584,-3.244 3.572,-3.287 3.564,-3.330 3.558,-3.374"/>
<polygon class="node-44" points="3.495,-3.725 3.496,-3.745 3.500,-3.767 3.508,-3.791 3.519,-3.816 3.534,-3.841 3.551,-3.867 3.570,-3.891 3.591,-3.914 3.613,-3.936 3.636,-3.955 3.660,-3.971 3.682,-3.983 3.704,-3.992 3.724,-3.998 3.743,-3.999 3.758,-3.996 3.771,-3.990 3.786,-3.977 3.870,-3.904 3.894,-3.883 3.903,-3.871 3.909,-3.857 3.910,-3.839 3.908,-3.818 3.903,-3.796 3.894,-3.772 3.882,-3.747 3.867,-3.721 3.849,-3.696 3.829,-3.672 3.808,-3.649 3.785,-3.628 3.762,-3.610 3.739,-3.595 3.717,-3.583 3.695,-3.575 3.675,-3.571 3.658,-3.571 3.643,-3.574 3.631,-3.582 3.607,-3.602 3.522,-3.676 3.513,-3.684 3.504,-3.694 3.497,-3.708"/>
<polygon class="node-45" points="5.392,-5.182 5.393,-5.227 5.399,-5.271 5.407,-5.314 5.419,-5.357 5.435,-5.399 5.453,-5.439 5.475,-5.478 5.500,-5.515 5.527,-5.550 5.558,-5.583 5.590,-5.613 5.625,-5.641 5.662,-5.665 5.701,-5.687 5.742,-5.706 5.783,-5.721 5.826,-5.733 5.870,-5.742 5.914,-5.747 5.958,-5.749 6.003,-5.747 6.047,-5.742 6.091,-5.733 6.133,-5.721 6.175,-5.706 6.216,-5.687 6.254,-5.665 6.291,-5.641 6.326,-5.613 6.359,-5.583 6.389,-5.550 6.417,-5.515 6.442,-5.478 6.463,-5.439 6.482,-5.399 6.497,-5.357 6.509,-5.314 6.518,-5.271 6.523,-5.227 6.525,-5.182 6.523,-5.138 6.518,-5.094 6.509,-5.050 6.497,-5.007 6.482,-4.965 6.463,-4.925 6.442,-4.886 6.417,-4.849 6.389,-4.814 6.359,-4.782 6.326,-4.751 6.291,-4.724 6.254,-4.699 6.216,-4.677 6.175,-4.659 6.133,-4.643 6.091,-4.631 6.047,-4.623 6.003,-4.617 5.958,-4.616 5.914,-4.617 5.870,-4.623 5.826,-4.631 5.783,-4.643 5.742,-4.659 5.701,-4.677 5.662,-4.699 5.625,-4.724 5.590,-4.751 5.558,-4.782 5.527,-4.814 5.500,-4.849 5.475,-4.886 5.453,-4.925 5.435,-4.965 5.419,-5.007 5.407,-5.050 5.399,-5.094 5.393,-5.138"/>
<polygon class="node-46" points="3.014,-4.140 3.014,-4.159 3.018,-4.181 3.025,-4.204 3.036,-4.229 3.050,-4.254 3.066,-4.280 3.085,-4.305 3.106,-4.328 3.128,-4.350 3.151,-4.369 3.174,-4.386 3.197,-4.399 3.219,-4.409 3.240,-4.415 3.258,-4.417 3.275,-4.415 3.288,-4.409 3.305,-4.395 3.714,-4.040 3.763,-3.997 3.778,-3.983 3.786,-3.970 3.790,-3.954 3.790,-3.935 3.786,-3.913 3.779,-3.890 3.769,-3.865 3.755,-3.840 3.739,-3.815 3.720,-3.790 3.700,-3.766 3.678,-3.744 3.655,-3.725 3.632,-3.708 3.609,-3.694 3.587,-3.684 3.566,-3.677 3.547,-3.675 3.531,-3.676 3.517,-3.682 3.497,-3.698 3.450,-3.739 3.042,-4.094 3.024,-4.110 3.017,-4.123"/>
<polygon class="node-47" points="4.144,-3.087 4.148,-3.113 4.157,-3.139 4.169,-3.165 4.186,-3.190 4.206,-3.213 4.230,-3.234 4.255,-3.252 4.283,-3.267 4.311,-3.278 4.341,-3.285 4.369,-3.289 4.397,-3.288 4.423,-3.283 4.447,-3.274 4.468,-3.262 4.485,-3.246 4.499,-3.227 4.524,-3.190 4.538,-3.171 4.553,-3.149 4.684,-2.959 4.861,-2.704 4.879,-2.678 4.889,-2.656 4.894,-2.633 4.895,-2.608 4.892,-2.582 4.884,-2.556 4.872,-2.530 4.856,-2.505 4.836,-2.481 4.813,-2.460 4.788,-2.442 4.760,-2.426 4.732,-2.415 4.703,-2.407 4.674,-2.403 4.646,-2.403 4.620,-2.407 4.596,-2.415 4.574,-2.427 4.556,-2.443 4.542,-2.462 4.531,-2.478 4.355,-2.732 4.222,-2.924 4.208,-2.945 4.192,-2.968 4.159,-3.017 4.149,-3.038 4.144,-3.062"/>
<polygon class="node-48" points="2.655,-4.255 2.656,-4.295 2.661,-4.334 2.669,-4.373 2.679,-4.411 2.693,-4.449 2.710,-4.485 2.729,-4.520 2.751,-4.553 2.776,-4.584 2.803,-4.613 2.832,-4.640 2.863,-4.665 2.897,-4.687 2.931,-4.706 2.967,-4.723 3.005,-4.737 3.043,-4.748 3.082,-4.755 3.122,-4.760 3.161,-4.762 3.201,-4.760 3.241,-4.755 3.280,-4.748 3.318,-4.737 3.355,-4.723 3.391,-4.706 3.426,-4.687 3.459,-4.665 3.490,-4.640 3.520,-4.613 3.547,-4.584 3.571,-4.553 3.593,-4.520 3.613,-4.485 3.629,-4.449 3.643,-4.411 3.654,-4.373 3.662,-4.334 3.666,-4.295 3.668,-4.255 3.666,-4.215 3.662,-4.176 3.654,-4.137 3.643,-4.098 3.629,-4.061 3.613,-4.025 3.593,-3.990 3.571,-3.957 3.547,-3.926 3.520,-3.897 3.490,-3.870 3.459,-3.845 3.426,-3.823 3.391,-3.803 3.355,-3.787 3.318,-3.773 3.280,-3.762 3.241,-3.754 3.201,-3.750 3.161,-3.748 3.122,-3.750 3.082,-3.754 3.043,-3.762 3.005,-3.773 2.967,-3.787 2.931,-3.803 2.897,-3.823 2.863,-3.845 2.832,-3.870 2.803,-3.897 2.776,-3.926 2.751,-3.957 2.729,-3.990 2.710,-4.025 2.693,-4.061 2.679,-4.098 2.669,-4.137 2.661,-4.176 2.656,-4.215"/>
<polygon class="node-49" points="5.391,-1.917 5.393,-1.957 5.397,-1.996 5.405,-2.035 5.416,-2.074 5.430,-2.111 5.446,-2.147 5.466,-2.182 5.488,-2.215 5.512,-2.246 5.539,-2.275 5.569,-2.302 5.600,-2.327 5.633,-2.349 5.668,-2.369 5.704,-2.385 5.741,-2.399 5.779,-2.410 5.818,-2.418 5.858,-2.422 5.898,-2.424 5.937,-2.422 5.977,-2.418 6.016,-2.410 6.054,-2.399 6.092,-2.385 6.128,-2.369 6.162,-2.349 6.196,-2.327 6.227,-2.302 6.256,-2.275 6.283,-2.246 6.308,-2.215 6.330,-2.182 6.349,-2.147 6.366,-2.111 6.380,-2.074 6.390,-2.035 6.398,-1.996 6.403,-1.957 6.404,-1.917 6.404,-1.917 6.403,-1.877 6.398,-1.838 6.390,-1.799 6.380,-1.761 6.366,-1.723 6.349,-1.687 6.330,-1.652 6.308,-1.619 6.283,-1.588 6.256,-1.559 6.227,-1.532 6.196,-1.507 6.162,-1.485 6.128,-1.466 6.092,-1.449 6.054,-1.435 6.016,-1.424 5.977,-1.417 5.937,-1.412 5.898,-1.410 5.858,-1.412 5.818,-1.417 5.779,-1.424 5.741,-1.435 5.704,-1.449 5.668,-1.466 5.633,-1.485 5.600,-1.507 5.569,-1.532 5.539,-1.559 5.512,-1.588 5.488,-1.619 5.466,-1.652 5.446,-1.687 5.430,-1.723 5.416,-1.761 5.405,-1.799 5.397,-1.838 5.393,-1.877"/>
<polygon class="node-50" points="5.193,-2.111 5.196,-2.131 5.200,-2.154 5.208,-2.179 5.217,-2.206 5.229,-2.233 5.243,-2.261 5.258,-2.289 5.275,-2.315 5.292,-2.340 5.309,-2.362 5.326,-2.381 5.343,-2.397 5.359,-2.409 5.373,-2.417 5.386,-2.421 5.396,-2.420 5.413,-2.411 5.431,-2.402 5.503,-2.362 5.565,-2.328 5.592,-2.313 5.600,-2.307 5.605,-2.297 5.607,-2.282 5.607,-2.264 5.604,-2.243 5.599,-2.220 5.591,-2.194 5.580,-2.167 5.568,-2.139 5.554,-2.111 5.538,-2.084 5.522,-2.058 5.505,-2.034 5.487,-2.013 5.470,-1.995 5.454,-1.980 5.438,-1.969 5.424,-1.962 5.412,-1.959 5.402,-1.961 5.370,-1.979 5.313,-2.010 5.237,-2.052 5.224,-2.059 5.212,-2.066 5.203,-2.071 5.197,-2.081 5.194,-2.094"/>
<polygon class="node-51" points="4.600,-2.424 4.600,-2.442 4.603,-2.462 4.608,-2.486 4.616,-2.512 4.626,-2.539 4.639,-2.566 4.653,-2.594 4.668,-2.622 4.685,-2.647 4.702,-2.672 4.719,-2.693 4.737,-2.712 4.753,-2.727 4.769,-2.738 4.783,-2.745 4.795,-2.747 4.805,-2.746 4.820,-2.737 4.881,-2.704 5.118,-2.574 5.311,-2.467 5.357,-2.442 5.369,-2.436 5.403,-2.417 5.410,-2.408 5.414,-2.396 5.415,-2.380 5.413,-2.360 5.409,-2.338 5.402,-2.313 5.393,-2.287 5.381,-2.259 5.368,-2.231 5.353,-2.204 5.337,-2.177 5.320,-2.152 5.303,-2.129 5.285,-2.109 5.269,-2.093 5.253,-2.080 5.238,-2.071 5.225,-2.066 5.214,-2.066 5.205,-2.070 5.179,-2.084 5.119,-2.117 4.926,-2.223 4.688,-2.354 4.630,-2.385 4.616,-2.393 4.608,-2.399 4.603,-2.410"/>
<polygon class="node-52" points="4.144,-2.570 4.145,-2.614 4.151,-2.658 4.159,-2.702 4.171,-2.745 4.187,-2.786 4.205,-2.827 4.227,-2.866 4.252,-2.903 4.279,-2.938 4.310,-2.970 4.342,-3.000 4.377,-3.028 4.414,-3.053 4.453,-3.074 4.493,-3.093 4.535,-3.108 4.578,-3.121 4.622,-3.129 4.666,-3.134 4.710,-3.136 4.755,-3.134 4.799,-3.129 4.843,-3.121 4.885,-3.108 4.927,-3.093 4.968,-3.074 5.006,-3.053 5.043,-3.028 5.078,-3.000 5.111,-2.970 5.141,-2.938 5.169,-2.903 5.194,-2.866 5.215,-2.827 5.234,-2.786 5.249,-2.745 5.261,-2.702 5.270,-2.658 5.275,-2.614 5.277,-2.570 5.275,-2.525 5.270,-2.481 5.261,-2.437 5.249,-2.394 5.234,-2.353 5.215,-2.312 5.194,-2.273 5.169,-2.236 5.141,-2.202 5.111,-2.169 5.078,-2.139 5.043,-2.111 5.006,-2.086 4.968,-2.065 4.927,-2.046 4.885,-2.031 4.843,-2.019 4.799,-2.010 4.755,-2.005 4.710,-2.003 4.666,-2.005 4.622,-2.010 4.578,-2.019 4.535,-2.031 4.493,-2.046 4.453,-2.065 4.414,-2.086 4.377,-2.111 4.342,-2.139 4.310,-2.169 4.279,-2.202 4.252,-2.236 4.227,-2.273 4.205,-2.312 4.187,-2.353 4.171,-2.394 4.159,-2.437 4.151,-2.481 4.145,-2.525"/>
<polygon class="node-53" points="3.556,-1.689 3.558,-1.704 3.563,-1.716 3.617,-1.770 3.867,-2.018 4.195,-2.342 4.221,-2.367 4.232,-2.373 4.247,-2.375 4.264,-2.373 4.283,-2.368 4.305,-2.359 4.327,-2.347 4.351,-2.332 4.374,-2.314 4.398,-2.293 4.420,-2.271 4.441,-2.248 4.460,-2.224 4.476,-2.201 4.490,-2.177 4.500,-2.155 4.507,-2.135 4.510,-2.116 4.510,-2.100 4.505,-2.088 4.497,-2.078 4.473,-2.054 4.149,-1.734 3.898,-1.486 3.843,-1.433 3.831,-1.428 3.816,-1.426 3.799,-1.429 3.779,-1.435 3.757,-1.445 3.734,-1.458 3.710,-1.474 3.687,-1.492 3.664,-1.513 3.642,-1.535 3.621,-1.558 3.603,-1.582 3.587,-1.606 3.574,-1.629 3.565,-1.651 3.559,-1.671"/>
<polygon class="node-54" points="3.141,-1.579 3.142,-1.623 3.148,-1.667 3.156,-1.711 3.168,-1.754 3.184,-1.796 3.202,-1.836 3.224,-1.875 3.249,-1.912 3.276,-1.947 3.307,-1.979 3.339,-2.010 3.374,-2.037 3.411,-2.062 3.450,-2.084 3.490,-2.102 3.532,-2.118 3.575,-2.130 3.619,-2.138 3.663,-2.144 3.707,-2.145 3.752,-2.144 3.796,-2.138 3.840,-2.130 3.882,-2.118 3.924,-2.102 3.965,-2.084 4.003,-2.062 4.040,-2.037 4.075,-2.010 4.108,-1.979 4.138,-1.947 4.166,-1.912 4.190,-1.875 4.212,-1.836 4.231,-1.796 4.246,-1.754 4.258,-1.711 4.267,-1.667 4.272,-1.623 4.274,-1.579 4.274,-1.579 4.272,-1.534 4.267,-1.490 4.258,-1.446 4.246,-1.404 4.231,-1.362 4.212,-1.321 4.190,-1.283 4.166,-1.246 4.138,-1.211 4.108,-1.178 4.075,-1.148 4.040,-1.120 4.003,-1.096 3.965,-1.074 3.924,-1.055 3.882,-1.040 3.840,-1.028 3.796,-1.019 3.752,-1.014 3.707,-1.012 3.663,-1.014 3.619,-1.019 3.575,-1.028 3.532,-1.040 3.490,-1.055 3.450,-1.074 3.411,-1.096 3.374,-1.120 3.339,-1.148 3.307,-1.178 3.276,-1.211 3.249,-1.246 3.224,-1.283 3.202,-1.321 3.184,-1.362 3.168,-1.404 3.156,-1.446 3.148,-1.490 3.142,-1.534"/>
</svg>